<svg width="300" height="400" version="1.1" xmlns="http://www.w3.org/2000/svg" xmlns:xlink="http://www.w3.org/1999/xlink" viewBox="0 0 158 158" preserveAspectRatio="xMinYMin meet" xml:space="preserve" style="fill-rule:evenodd;clip-rule:evenodd;stroke-linejoin:round;stroke-miterlimit:1.41421;">
    <g>
        <path class="svg-elements-animate" id="left-flower" d="M38.962,52.0329C39.3722,51.7934 39.9978,51.412 40.6804,50.888C39.2417,51.1306 37.3915,50.8059 35.5414,48.9471C35.5119,48.9175 32.7644,46.1795 35.5256,43.4299C35.5816,43.3741 37.2156,41.7223 38.9346,43.4417C38.9658,43.4729 39.9877,44.4996 38.9407,45.5478C38.9252,45.5633 38.2872,46.1935 37.6365,45.5433C37.6236,45.5304 37.2322,45.141 37.6342,44.7375C37.6384,44.7332 37.882,44.4899 38.1291,44.7392C38.1336,44.7437 38.2848,44.8952 38.13,45.0498C38.1256,45.0542 38.0361,45.142 37.9442,45.0492C37.9442,45.0491 37.8806,44.988 37.9427,44.9255C37.9441,44.9242 37.975,44.8943 38.0049,44.9246C38.0049,44.9246 37.9615,44.9386 37.9586,44.9414C37.9134,44.9853 37.9559,45.0318 37.9589,45.0345C38.0262,45.0952 38.1004,45.0283 38.1044,45.0242C38.2228,44.9025 38.1075,44.7906 38.0929,44.7754C37.9049,44.5803 37.703,44.7629 37.6815,44.7848C37.4253,45.0447 37.594,45.3464 37.7132,45.4666C38.1784,45.9357 38.732,45.5418 38.8337,45.4407C39.5909,44.6871 39.0216,43.8928 38.7527,43.6236C37.4903,42.3599 36.0433,43.4304 35.7845,43.6892C33.5894,45.8843 35.6757,48.2293 35.977,48.5115C37.8861,50.2993 39.9313,50.3691 41.6302,49.9235C42.2332,48.5016 43.1173,47.6155 43.1173,47.6155C43.1173,47.6155 43.5053,47.2425 43.6184,47.1353L29.6691,33.2488L29.6665,32.3511C29.6665,32.3511 39.3053,41.9028 48.6535,51.203C55.2838,57.7992 56.1013,61.3127 56.0395,63.4217C55.6988,75.0386 46.7881,78.2063 42.3831,79.0735C46.9425,80.0727 55.4529,83.4224 55.8503,94.7597C55.9242,96.8692 55.1269,100.377 48.5343,106.928C39.2392,116.164 29.6549,125.649 29.6549,125.649L29.6523,124.751L43.8978,110.588C43.6863,110.386 43.2961,110.01 43.2961,110.01C43.2961,110.01 42.4378,109.149 41.8189,107.746L41.8034,107.726L41.7698,107.685C40.0943,107.235 38.0494,107.29 36.1505,109.065C35.8508,109.345 33.778,111.676 35.9857,113.886C36.246,114.147 37.6992,115.227 38.9543,113.972C39.2217,113.705 39.7865,112.915 39.0249,112.156C38.9227,112.054 38.3667,111.656 37.9042,112.122C37.7858,112.241 37.6188,112.542 37.8764,112.804C37.8981,112.826 38.1011,113.01 38.2879,112.816C38.3024,112.801 38.4171,112.69 38.298,112.567C38.294,112.563 38.2193,112.496 38.1524,112.556C38.1494,112.558 38.1072,112.605 38.1527,112.649C38.1556,112.652 38.1991,112.666 38.1991,112.666C38.1693,112.696 38.1382,112.666 38.1369,112.665C38.0744,112.602 38.1376,112.541 38.1377,112.541C38.229,112.449 38.319,112.537 38.3234,112.542C38.4791,112.697 38.3288,112.848 38.3243,112.852C38.0786,113.1 37.8337,112.855 37.8294,112.851C37.4251,112.444 37.8143,112.058 37.8271,112.045C38.4741,111.399 39.1157,112.034 39.1313,112.049C40.1844,113.105 39.1683,114.124 39.1373,114.155C37.4282,115.863 35.7846,114.2 35.7283,114.144C32.9513,111.375 35.6831,108.656 35.7124,108.626C37.552,106.78 39.4003,106.468 40.8686,106.726C40.0624,105.957 39.1475,105.383 38.425,104.956C38.4465,105.1 38.4554,105.205 38.4554,105.205C38.4554,105.205 36.9315,105.932 36.233,105.526C35.5346,105.121 34.2876,102.787 34.2876,102.787C34.2876,102.787 36.9167,102.719 37.6151,103.124C38.0844,103.396 38.3024,104.242 38.3948,104.769C39.0232,105.002 40.2251,105.53 41.4114,106.463C41.081,104.967 41.3199,103.012 43.2705,101.068C43.2999,101.039 46.0189,98.3073 48.7844,101.088C48.8405,101.144 50.5017,102.789 48.7942,104.499C48.7631,104.53 47.7435,105.546 46.6893,104.491C46.6737,104.476 46.0398,103.833 46.6855,103.186C46.6983,103.174 47.0851,102.784 47.4909,103.189C47.4952,103.193 47.7398,103.439 47.4923,103.684C47.4878,103.689 47.3373,103.839 47.1819,103.683C47.1774,103.679 47.0892,103.589 47.1813,103.497C47.1814,103.497 47.2421,103.434 47.3049,103.497C47.3062,103.498 47.3363,103.529 47.3062,103.559C47.3062,103.559 47.2919,103.515 47.2891,103.512C47.2449,103.467 47.1987,103.509 47.196,103.512C47.1358,103.579 47.2032,103.654 47.2073,103.658C47.3297,103.777 47.4408,103.662 47.4559,103.648C47.6497,103.461 47.4659,103.258 47.4439,103.236C47.1825,102.978 46.882,103.145 46.7627,103.264C46.2968,103.726 46.6939,104.283 46.7957,104.385C47.5536,105.147 48.3438,104.583 48.6112,104.315C49.8662,103.06 48.7872,101.606 48.5269,101.345C46.3192,99.1347 43.9886,101.207 43.7085,101.507C41.9338,103.406 41.8769,105.452 42.333,107.155C43.7579,107.767 44.6491,108.657 44.6491,108.657C44.6491,108.657 45.0244,109.048 45.2293,109.264L48.1699,106.34C53.5272,101.013 54.6379,97.4099 54.6693,95.179C54.7092,92.3484 53.8332,89.8911 52.4863,87.8176C52.4765,87.8226 52.472,87.8227 52.4688,87.8195C51.0666,86.4508 48.3562,83.5027 44.5234,81.969C45.2003,83.1682 45.6269,84.6757 45.629,86.6052C45.6291,86.6631 45.6571,92.0409 40.2234,92.0108C40.1131,92.0102 36.8733,92.0165 36.8621,88.6456C36.8619,88.5844 36.8597,86.576 38.9257,86.5821C38.9562,86.5821 40.2066,86.5941 40.2116,87.8694C40.2117,87.8946 40.2163,88.6602 39.422,88.659C39.4136,88.659 38.9336,88.657 38.934,88.1704C38.934,88.1615 38.9333,87.8648 39.2384,87.8661C39.2471,87.8661 39.4218,87.8684 39.4215,88.0494C39.4215,88.0496 39.4244,88.1718 39.3016,88.1717C39.2989,88.1717 39.2389,88.1705 39.2391,88.1115C39.2391,88.1115 39.2959,88.1405 39.3015,88.1406C39.3893,88.1421 39.393,88.0549 39.3927,88.0493C39.3857,87.9239 39.2465,87.9162 39.2385,87.9163C39.0018,87.9187 39.0059,88.1415 39.0055,88.1707C38.9997,88.5462 39.379,88.5664 39.4217,88.5662C39.9305,88.5643 40.0601,88.1035 40.0603,87.8689C40.061,86.953 39.1262,86.7931 38.9263,86.7919C37.4365,86.7833 37.2193,88.1193 37.2209,88.6468C37.2281,91.1233 39.7116,91.501 40.222,91.5028C44.5508,91.5177 44.7909,87.1743 44.7701,86.6022C44.686,84.2955 44.0064,82.6148 43.1371,81.4776C39.7361,80.4781 35.6661,80.5505 30.8743,83.0953C29.9326,83.5955 23.1545,88.0405 27.2195,95.0645C27.6988,95.8926 30.626,99.5778 34.6252,97.2778C35.4772,96.7878 37.4283,95.1876 36.0236,92.7736C35.8351,92.4496 34.7047,91.079 33.2287,91.9351C32.8506,92.1545 32.2288,92.7953 32.7006,93.6243C32.7403,93.694 33.1269,94.2918 33.7269,93.9319C33.7736,93.9039 34.1366,93.7026 33.9195,93.3154C33.9123,93.3025 33.7699,93.0832 33.5611,93.189C33.5518,93.1937 33.4146,93.2811 33.4992,93.4225C33.5046,93.4315 33.6043,93.4967 33.6043,93.4967C33.5093,93.5521 33.4513,93.4557 33.4489,93.4514C33.334,93.2518 33.5338,93.1423 33.534,93.1422C33.8256,92.9727 33.9924,93.2547 34.0005,93.2688C34.2875,93.7636 33.8084,94.0394 33.794,94.0478C33.0099,94.5026 32.5587,93.7241 32.5509,93.7105C31.8074,92.4203 33.046,91.7131 33.0867,91.6897C35.1474,90.5072 36.3339,92.529 36.3626,92.5786C38.3008,95.932 35.061,97.8031 34.9621,97.8599C29.5173,100.988 26.503,95.7151 26.3991,95.5364C25.4389,93.8852 24.9645,92.3687 24.8269,90.9807C23.6081,92.0253 22.8117,93.3048 22.322,94.1426C22.3615,94.1356 22.4712,94.1223 22.5507,94.1136L22.5664,94.1077L22.5698,94.1118L22.5723,94.1115L22.5757,94.119C22.8514,94.4602 23.6429,95.5063 23.4657,96.1744C23.2596,96.9519 21.3362,98.747 21.3362,98.747C21.3362,98.747 21.1904,98.2639 21.0698,97.7615C20.627,98.0306 20.182,98.2666 20.182,98.2666C20.182,98.2666 20.0975,95.6355 20.498,94.9392C20.7562,94.4904 21.5433,94.2763 22.135,94.172C22.4626,93.2869 23.2558,91.5261 24.7858,90.1087C24.8624,84.6798 29.996,81.7429 30.0677,81.7016C31.3283,80.9735 32.5424,80.4232 33.8039,79.9931C29.1898,79.6898 26.0644,79.5667 23.3424,79.5448C20.8092,79.6154 16.3602,80.2533 14.654,85.9113C14.489,86.4583 13.6215,90.7169 17.806,91.8524C18.2994,91.9863 20.7936,92.2812 21.4274,89.8914C21.5624,89.3822 21.6909,88.0342 20.2499,87.6469C20.0565,87.5949 19.1132,87.501 18.882,88.3858C18.8228,88.6124 18.8313,89.0919 19.3222,89.2289C19.3635,89.2404 19.7349,89.3217 19.8244,88.9575C19.8314,88.9291 19.8917,88.715 19.6637,88.6498C19.6561,88.6476 19.5196,88.6181 19.4811,88.7374C19.4794,88.7427 19.4609,88.8279 19.5461,88.8497C19.5516,88.8511 19.6137,88.8382 19.6137,88.8382C19.599,88.8952 19.5407,88.8805 19.5382,88.8798C19.4195,88.8473 19.4532,88.7299 19.4532,88.7298C19.4988,88.5549 19.6681,88.5991 19.6765,88.6014C19.9715,88.6812 19.8957,88.9676 19.8934,88.9762C19.7707,89.4462 19.3066,89.3206 19.2985,89.3184C18.5311,89.1086 18.7293,88.3704 18.7358,88.3461C19.0634,87.1157 20.2741,87.4363 20.3036,87.4444C22.3004,87.9873 21.7899,89.9264 21.7742,89.9855C20.9101,93.238 17.7827,92.3714 17.676,92.3427C12.4206,90.9283 13.8089,85.7419 13.8236,85.686C14.8177,81.9104 17.0568,80.2721 19.3208,79.5912C16.6966,79.6644 13.9406,79.8141 9.81004,79.9267C9.60675,80.8745 9.0124,83.169 7.82873,83.7076C6.37191,84.3705 1.15638,83.6774 1.15638,83.6774C1.15638,83.6774 1.65324,82.9314 2.32794,82.0262C1.25135,81.6448 0.416905,81.2986 0.416905,81.2986C0.416905,81.2986 1.0906,80.708 2.00773,79.986C1.05155,79.3303 0.333714,78.7804 0.333714,78.7804C0.333714,78.7804 5.02683,76.476 6.62431,76.6329C7.99714,76.7678 9.40475,78.9482 9.80309,79.6085C12.013,79.3887 15.4527,79.0851 19.5635,78.8617C17.2907,78.2646 14.8555,76.6416 13.7863,72.66C13.7713,72.604 12.3532,67.4079 17.6006,66.0298C17.7071,66.0019 20.8296,65.1568 21.7124,68.4154C21.7284,68.4746 22.2501,70.4172 20.2563,70.9464C20.2268,70.9542 19.018,71.2665 18.6833,70.0338C18.6767,70.0094 18.4742,69.2699 19.2404,69.0654C19.2485,69.0632 19.7119,68.9408 19.8374,69.4117C19.8397,69.4203 19.9171,69.7073 19.6226,69.785C19.6142,69.7872 19.4451,69.8303 19.3986,69.655C19.3985,69.6549 19.3642,69.5373 19.4826,69.5056C19.4852,69.505 19.5433,69.4906 19.5584,69.5478C19.5584,69.5478 19.4962,69.5344 19.4908,69.5358C19.4056,69.557 19.4247,69.6423 19.4264,69.6477C19.4656,69.7673 19.6019,69.7386 19.6095,69.7365C19.8371,69.6728 19.7756,69.4583 19.7684,69.43C19.6769,69.0651 19.3059,69.1438 19.2647,69.1551C18.7746,69.2887 18.7688,69.7681 18.8293,69.9951C19.0655,70.8815 20.0083,70.7941 20.2014,70.7435C21.6402,70.3661 21.5041,69.0172 21.3661,68.5071C20.7186,66.1129 18.226,66.3906 17.7334,66.521C13.5554,67.6276 14.4473,71.8923 14.6154,72.4404C16.0757,77.2027 19.4506,78.4368 21.9074,78.7496C25.8547,78.5831 30.2491,78.5193 34.4427,78.6971C32.9848,78.253 31.5526,77.63 30.0535,76.7567C29.9796,76.7136 24.5318,73.5698 24.7251,68.0468C23.1851,66.6172 22.3813,64.8505 22.0482,63.9624C21.4565,63.8541 20.6682,63.6345 20.4074,63.184C20.0028,62.4849 20.0723,59.8543 20.0723,59.8543C20.0723,59.8543 20.5187,60.0934 20.963,60.3656C21.0807,59.8639 21.2238,59.3818 21.2238,59.3818C21.2238,59.3818 23.1575,61.1903 23.3681,61.9692C23.5491,62.6385 22.7636,63.6792 22.4899,64.0185L22.4865,64.0259L22.484,64.0257L22.4806,64.0297L22.4649,64.0237C22.3853,64.0145 22.2755,64.0004 22.2354,63.9931C22.7311,64.8356 23.5389,66.1241 24.7857,67.1962C24.955,65.8466 25.4198,64.4284 26.3055,62.8963C26.4084,62.7183 29.3925,57.4657 34.8554,60.6318C34.9547,60.6893 38.2053,62.5828 36.2862,65.9229C36.2578,65.9723 35.0829,67.9859 33.0153,66.7892C32.9745,66.7655 31.7319,66.0498 32.4679,64.7647C32.4757,64.7511 32.9224,63.9757 33.7091,64.436C33.7236,64.4444 34.2042,64.7236 33.9201,65.2164C33.912,65.2304 33.7469,65.5113 33.4543,65.3397C33.4541,65.3396 33.2537,65.2287 33.3674,65.0299C33.3699,65.0256 33.4273,64.9297 33.5226,64.9857C33.5226,64.9857 33.4232,65.0502 33.4179,65.0592C33.3341,65.2 33.4719,65.2884 33.4811,65.2931C33.6905,65.4004 33.8317,65.1821 33.8389,65.1692C34.0537,64.7835 33.6896,64.5797 33.6427,64.5514C33.0406,64.1873 32.6574,64.7825 32.6182,64.8519C32.1511,65.6777 32.7766,66.3228 33.1559,66.5447C34.6368,67.4111 35.7594,66.0483 35.9461,65.7256C37.3369,63.3213 35.3766,61.7075 34.5218,61.2116C30.5094,58.884 27.6032,62.549 27.1287,63.3739C23.1039,70.3699 29.9076,74.8618 30.8522,75.3685C35.5566,77.8917 39.556,78.0415 42.8538,77.148C43.8878,75.9075 44.6514,74.1599 44.7273,71.689C44.7449,71.1171 44.4798,66.7719 40.151,66.757C39.6407,66.7552 37.1593,67.1158 37.1663,69.5923C37.1678,70.1199 37.3926,71.4574 38.8823,71.459C39.0823,71.4592 40.0162,71.3057 40.0102,70.3898C40.0087,70.1552 39.8765,69.6935 39.3676,69.6881C39.3249,69.6876 38.9457,69.7052 38.9536,70.0807C38.9542,70.11 38.9514,70.3327 39.1882,70.3368C39.1961,70.3369 39.3353,70.3302 39.3415,70.2048C39.3418,70.1992 39.3377,70.1119 39.2498,70.1129C39.2442,70.113 39.1876,70.1416 39.1876,70.1416C39.1871,70.0826 39.2471,70.0817 39.2497,70.0818C39.3725,70.0825 39.3704,70.2047 39.3704,70.2049C39.3717,70.3859 39.197,70.387 39.1883,70.387C38.8832,70.3862 38.8822,70.0894 38.8822,70.0805C38.879,69.5939 39.359,69.5953 39.3674,69.5953C40.1616,69.5996 40.1614,70.3651 40.1615,70.3903C40.1638,71.6657 38.9135,71.669 38.8829,71.6689C36.8169,71.6606 36.8076,69.6523 36.8075,69.591C36.7994,66.2202 40.0393,66.2488 40.1496,66.249C45.5832,66.2564 45.586,71.6341 45.5863,71.692C45.5965,73.8874 45.054,75.5327 44.2946,76.6734C48.1921,75.164 50.8781,72.3098 52.3942,70.8186C53.9051,68.6698 54.9167,66.0537 54.8561,62.9943C54.8119,60.7631 53.6805,57.152 48.2926,51.7884L44.962,48.4728C44.8511,48.5898 44.4781,48.9779 44.4781,48.9779C44.4781,48.9779 43.592,49.862 42.1705,50.4645C41.7242,52.1641 41.7928,54.2105 43.5785,56.1218C43.8603,56.4235 46.2027,58.5123 48.3978,56.3172C48.6567,56.0584 49.7273,54.6111 48.4651,53.3473C48.1962,53.0781 47.4028,52.508 46.6491,53.2652C46.548,53.3669 46.154,53.9206 46.6226,54.3864C46.7426,54.5057 47.0441,54.6746 47.304,54.4185C47.3258,54.397 47.5085,54.195 47.3136,54.0069C47.2984,53.9922 47.1867,53.8768 47.0649,53.9952C47.0609,53.9991 46.9939,54.0734 47.0545,54.1408C47.0572,54.1438 47.1037,54.1863 47.1476,54.1411C47.1504,54.1382 47.1645,54.0948 47.1645,54.0948C47.1947,54.1247 47.1648,54.1557 47.1635,54.157C47.101,54.2191 47.04,54.1555 47.0399,54.1554C46.9472,54.0634 47.035,53.974 47.0394,53.9696C47.1939,53.8147 47.3453,53.9661 47.3498,53.9706C47.5988,54.218 47.3555,54.4616 47.3513,54.4658C46.9477,54.8678 46.5587,54.4759 46.5459,54.4631C45.8965,53.8116 46.5266,53.1736 46.5421,53.1581C47.5904,52.111 48.6158,53.1341 48.647,53.1654C50.3644,54.8864 48.7126,56.5204 48.6568,56.5764C45.9072,59.3376 43.1724,56.5869 43.1429,56.5574C41.1811,54.6003 40.931,52.6441 41.278,51.0291C40.3718,51.6473 39.4683,52.0291 38.9322,52.2233C38.8434,52.7463 38.6302,53.5905 38.1625,53.8596C37.4664,54.26 34.8369,54.1739 34.8369,54.1739C34.8369,54.1739 36.0705,51.8479 36.7666,51.4475C37.4627,51.0471 38.9909,51.7845 38.9909,51.7845C38.9909,51.7845 38.9826,51.8892 38.962,52.0329Z"
        style="" />
    </g>
    <g>
        <path class="svg-elements-animate" id="right-flower" d="M119.038,105.967C118.628,106.207 118.002,106.588 117.32,107.112C118.758,106.869 120.608,107.194 122.459,109.053C122.488,109.083 125.236,111.82 122.474,114.57C122.418,114.626 120.784,116.278 119.065,114.558C119.034,114.527 118.012,113.5 119.059,112.452C119.075,112.437 119.713,111.807 120.364,112.457C120.376,112.47 120.768,112.859 120.366,113.263C120.362,113.267 120.118,113.51 119.871,113.261C119.866,113.256 119.715,113.105 119.87,112.95C119.874,112.946 119.964,112.858 120.056,112.951C120.056,112.951 120.119,113.012 120.057,113.074C120.056,113.076 120.025,113.106 119.995,113.075C119.995,113.075 120.039,113.061 120.041,113.059C120.087,113.015 120.044,112.968 120.041,112.965C119.974,112.905 119.9,112.972 119.896,112.976C119.777,113.098 119.893,113.209 119.907,113.225C120.095,113.42 120.297,113.237 120.319,113.215C120.575,112.955 120.406,112.654 120.287,112.533C119.822,112.064 119.268,112.458 119.166,112.559C118.409,113.313 118.978,114.107 119.247,114.376C120.51,115.64 121.957,114.57 122.215,114.311C124.411,112.116 122.324,109.771 122.023,109.489C120.114,107.701 118.069,107.631 116.37,108.076C115.767,109.498 114.883,110.385 114.883,110.385C114.883,110.385 114.495,110.758 114.382,110.865L128.331,124.751L128.334,125.649C128.334,125.649 118.695,116.097 109.346,106.797C102.716,100.201 101.899,96.6873 101.961,94.5783C102.301,82.9614 111.212,79.7937 115.617,78.9265C111.057,77.9273 102.547,74.5776 102.15,63.2403C102.076,61.1308 102.873,57.6229 109.466,51.0723C118.761,41.8364 128.345,32.3511 128.345,32.3511L128.348,33.2488L114.102,47.4125C114.314,47.6139 114.704,47.9896 114.704,47.9896C114.704,47.9896 115.562,48.8508 116.181,50.2539L116.197,50.2738L116.23,50.3147C117.906,50.7653 119.951,50.7096 121.849,48.9349C122.149,48.6548 124.222,46.3242 122.014,44.1138C121.754,43.8532 120.301,42.7728 119.046,44.0278C118.778,44.2951 118.214,45.0855 118.975,45.8443C119.077,45.9462 119.633,46.3439 120.096,45.878C120.214,45.7586 120.381,45.4581 120.124,45.1964C120.102,45.1744 119.899,44.9903 119.712,45.1841C119.698,45.1992 119.583,45.3104 119.702,45.4329C119.706,45.437 119.781,45.5044 119.848,45.4442C119.851,45.4415 119.893,45.3953 119.847,45.3511C119.844,45.3483 119.801,45.3339 119.801,45.3339C119.831,45.3039 119.862,45.334 119.863,45.3353C119.926,45.3982 119.862,45.4589 119.862,45.4589C119.771,45.5511 119.681,45.4627 119.677,45.4583C119.521,45.3027 119.671,45.1522 119.676,45.1477C119.921,44.9002 120.166,45.1451 120.171,45.1494C120.575,45.5557 120.186,45.9425 120.173,45.9552C119.526,46.6009 118.884,45.9663 118.869,45.9507C117.816,44.8952 118.832,43.8756 118.863,43.8446C120.572,42.137 122.215,43.8002 122.272,43.8564C125.049,46.6251 122.317,49.3441 122.288,49.3735C120.448,51.2196 118.6,51.5316 117.131,51.2743C117.938,52.0433 118.853,52.6173 119.575,53.0444C119.553,52.8999 119.545,52.7952 119.545,52.7952C119.545,52.7952 121.069,52.0683 121.767,52.4735C122.465,52.8788 123.712,55.2132 123.712,55.2132C123.712,55.2132 121.083,55.2812 120.385,54.876C119.916,54.6037 119.698,53.758 119.605,53.2311C118.977,52.998 117.775,52.4704 116.589,51.5374C116.919,53.0334 116.68,54.9879 114.73,56.9315C114.7,56.9608 111.981,59.6927 109.216,56.9125C109.159,56.8561 107.498,55.2106 109.206,53.5015C109.237,53.4704 110.256,52.4544 111.311,53.5087C111.326,53.5243 111.96,54.1666 111.314,54.8137C111.302,54.8264 110.915,55.2157 110.509,54.8109C110.505,54.8066 110.26,54.5614 110.508,54.3157C110.512,54.3112 110.663,54.1608 110.818,54.3168C110.823,54.3212 110.911,54.4113 110.819,54.5026C110.819,54.5027 110.758,54.5659 110.695,54.5033C110.694,54.502 110.664,54.4708 110.694,54.4411C110.694,54.4411 110.708,54.4846 110.711,54.4875C110.755,54.5331 110.801,54.4908 110.804,54.4879C110.864,54.4209 110.797,54.3462 110.793,54.3422C110.67,54.2229 110.559,54.3376 110.544,54.3521C110.35,54.539 110.534,54.7422 110.556,54.7639C110.817,55.0218 111.118,54.8549 111.237,54.7364C111.703,54.2739 111.306,53.7174 111.204,53.6151C110.446,52.8527 109.656,53.4173 109.389,53.6847C108.134,54.9398 109.213,56.3944 109.473,56.655C111.681,58.8653 114.011,56.7926 114.291,56.4929C116.066,54.5939 116.123,52.5479 115.667,50.8452C114.242,50.2329 113.351,49.3427 113.351,49.3427C113.351,49.3427 112.976,48.952 112.771,48.7364L109.83,51.6602C104.473,56.9867 103.362,60.5901 103.331,62.821C103.291,65.6516 104.167,68.1089 105.514,70.1824C105.523,70.1774 105.528,70.1773 105.531,70.1805C106.933,71.5492 109.644,74.4973 113.477,76.031C112.8,74.8318 112.373,73.3243 112.371,71.3948C112.371,71.3369 112.343,65.9591 117.777,65.9892C117.887,65.9898 121.127,65.9835 121.138,69.3544C121.138,69.4156 121.14,71.424 119.074,71.4179C119.044,71.4179 117.793,71.4059 117.788,70.1306C117.788,70.1054 117.784,69.3398 118.578,69.341C118.586,69.341 119.066,69.343 119.066,69.8296C119.066,69.8385 119.067,70.1352 118.762,70.1339C118.753,70.1339 118.578,70.1316 118.578,69.9506C118.578,69.9504 118.576,69.8282 118.698,69.8283C118.701,69.8283 118.761,69.8295 118.761,69.8885C118.761,69.8885 118.704,69.8595 118.699,69.8594C118.611,69.8579 118.607,69.9451 118.607,69.9507C118.614,70.0761 118.754,70.0838 118.761,70.0837C118.998,70.0813 118.994,69.8585 118.995,69.8293C119,69.4538 118.621,69.4336 118.578,69.4338C118.069,69.4357 117.94,69.8965 117.94,70.1311C117.939,71.047 118.874,71.2069 119.074,71.2081C120.563,71.2167 120.781,69.8807 120.779,69.3532C120.772,66.8767 118.288,66.499 117.778,66.4972C113.449,66.4823 113.209,70.8257 113.23,71.3978C113.314,73.7045 113.994,75.3852 114.863,76.5224C118.264,77.5219 122.334,77.4495 127.126,74.9047C128.067,74.4045 134.845,69.9595 130.78,62.9355C130.301,62.1074 127.374,58.4222 123.375,60.7222C122.523,61.2122 120.572,62.8124 121.976,65.2264C122.165,65.5504 123.295,66.921 124.771,66.0649C125.149,65.8455 125.771,65.2047 125.299,64.3757C125.26,64.306 124.873,63.7082 124.273,64.0681C124.226,64.0961 123.863,64.2974 124.08,64.6846C124.088,64.6975 124.23,64.9168 124.439,64.811C124.448,64.8063 124.585,64.7189 124.501,64.5775C124.495,64.5685 124.396,64.5033 124.396,64.5033C124.491,64.4479 124.549,64.5443 124.551,64.5486C124.666,64.7482 124.466,64.8577 124.466,64.8578C124.174,65.0273 124.008,64.7453 123.999,64.7312C123.713,64.2364 124.192,63.9606 124.206,63.9522C124.99,63.4974 125.441,64.2759 125.449,64.2895C126.193,65.5797 124.954,66.2869 124.913,66.3103C122.853,67.4928 121.666,65.471 121.637,65.4214C119.699,62.068 122.939,60.1969 123.038,60.1401C128.483,57.0116 131.497,62.2849 131.601,62.4636C132.561,64.1148 133.035,65.6313 133.173,67.0193C134.392,65.9747 135.188,64.6952 135.678,63.8574C135.639,63.8644 135.529,63.8777 135.449,63.8864L135.434,63.8923L135.43,63.8882L135.428,63.8885L135.424,63.881C135.149,63.5398 134.357,62.4937 134.534,61.8256C134.74,61.0481 136.664,59.253 136.664,59.253C136.664,59.253 136.81,59.7361 136.93,60.2385C137.373,59.9694 137.818,59.7334 137.818,59.7334C137.818,59.7334 137.903,62.3645 137.502,63.0608C137.244,63.5096 136.457,63.7237 135.865,63.828C135.537,64.7131 134.744,66.4739 133.214,67.8913C133.138,73.3202 128.004,76.2571 127.932,76.2984C126.672,77.0265 125.458,77.5768 124.196,78.0069C128.81,78.3102 131.936,78.4333 134.658,78.4552C137.191,78.3846 141.64,77.7467 143.346,72.0887C143.511,71.5417 144.378,67.2831 140.194,66.1476C139.701,66.0137 137.206,65.7188 136.573,68.1086C136.438,68.6178 136.309,69.9658 137.75,70.3531C137.944,70.4051 138.887,70.499 139.118,69.6142C139.177,69.3876 139.169,68.9081 138.678,68.7711C138.637,68.7596 138.265,68.6783 138.176,69.0425C138.169,69.0709 138.108,69.285 138.336,69.3502C138.344,69.3524 138.48,69.3819 138.519,69.2626C138.521,69.2573 138.539,69.1721 138.454,69.1503C138.448,69.1489 138.386,69.1618 138.386,69.1618C138.401,69.1048 138.459,69.1195 138.462,69.1202C138.58,69.1527 138.547,69.2701 138.547,69.2702C138.501,69.4451 138.332,69.4009 138.323,69.3986C138.029,69.3188 138.104,69.0324 138.107,69.0238C138.229,68.5538 138.693,68.6794 138.702,68.6816C139.469,68.8914 139.271,69.6296 139.264,69.6539C138.937,70.8843 137.726,70.5637 137.696,70.5556C135.7,70.0127 136.21,68.0736 136.226,68.0145C137.09,64.762 140.217,65.6286 140.324,65.6573C145.579,67.0717 144.191,72.2581 144.176,72.314C143.182,76.0896 140.943,77.7279 138.679,78.4088C141.303,78.3356 144.059,78.1859 148.19,78.0733C148.393,77.1255 148.988,74.831 150.171,74.2924C151.628,73.6295 156.844,74.3226 156.844,74.3226C156.844,74.3226 156.347,75.0686 155.672,75.9738C156.749,76.3552 157.583,76.7014 157.583,76.7014C157.583,76.7014 156.909,77.292 155.992,78.014C156.948,78.6697 157.666,79.2196 157.666,79.2196C157.666,79.2196 152.973,81.524 151.376,81.3671C150.003,81.2322 148.595,79.0518 148.197,78.3915C145.987,78.6113 142.547,78.9149 138.436,79.1383C140.709,79.7354 143.145,81.3584 144.214,85.34C144.229,85.396 145.647,90.5921 140.399,91.9702C140.293,91.9981 137.17,92.8432 136.288,89.5846C136.272,89.5254 135.75,87.5828 137.744,87.0536C137.773,87.0458 138.982,86.7335 139.317,87.9662C139.323,87.9906 139.526,88.7301 138.76,88.9346C138.751,88.9368 138.288,89.0592 138.163,88.5883C138.16,88.5797 138.083,88.2927 138.377,88.215C138.386,88.2128 138.555,88.1697 138.601,88.345C138.601,88.3451 138.636,88.4627 138.517,88.4944C138.515,88.495 138.457,88.5094 138.442,88.4522C138.442,88.4522 138.504,88.4656 138.509,88.4642C138.594,88.443 138.575,88.3577 138.574,88.3523C138.534,88.2327 138.398,88.2614 138.391,88.2635C138.163,88.3272 138.224,88.5417 138.232,88.57C138.323,88.9349 138.694,88.8562 138.735,88.8449C139.225,88.7113 139.231,88.2319 139.171,88.0049C138.934,87.1185 137.992,87.2059 137.799,87.2565C136.36,87.6339 136.496,88.9828 136.634,89.4929C137.281,91.8871 139.774,91.6094 140.267,91.479C144.445,90.3724 143.553,86.1077 143.385,85.5596C141.924,80.7973 138.549,79.5632 136.093,79.2504C132.145,79.4169 127.751,79.4807 123.557,79.3029C125.015,79.747 126.447,80.37 127.946,81.2433C128.02,81.2864 133.468,84.4302 133.275,89.9532C134.815,91.3828 135.619,93.1495 135.952,94.0376C136.544,94.1459 137.332,94.3655 137.593,94.816C137.997,95.5151 137.928,98.1457 137.928,98.1457C137.928,98.1457 137.481,97.9066 137.037,97.6344C136.919,98.1361 136.776,98.6182 136.776,98.6182C136.776,98.6182 134.843,96.8097 134.632,96.0308C134.451,95.3615 135.236,94.3208 135.51,93.9815L135.514,93.9741L135.516,93.9743L135.519,93.9703L135.535,93.9763C135.615,93.9855 135.724,93.9996 135.765,94.0069C135.269,93.1644 134.461,91.8759 133.214,90.8038C133.045,92.1534 132.58,93.5716 131.694,95.1037C131.592,95.2817 128.607,100.534 123.145,97.3682C123.045,97.3107 119.795,95.4172 121.714,92.0771C121.742,92.0277 122.917,90.0141 124.985,91.2108C125.026,91.2345 126.268,91.9502 125.532,93.2353C125.524,93.2489 125.078,94.0243 124.291,93.564C124.276,93.5556 123.796,93.2764 124.08,92.7836C124.088,92.7696 124.253,92.4887 124.546,92.6603C124.546,92.6604 124.746,92.7713 124.633,92.9701C124.63,92.9744 124.573,93.0703 124.477,93.0143C124.477,93.0143 124.577,92.9498 124.582,92.9408C124.666,92.8 124.528,92.7116 124.519,92.7069C124.309,92.5996 124.168,92.8179 124.161,92.8308C123.946,93.2165 124.31,93.4203 124.357,93.4486C124.959,93.8127 125.343,93.2175 125.382,93.1481C125.849,92.3223 125.223,91.6772 124.844,91.4553C123.363,90.5889 122.241,91.9517 122.054,92.2744C120.663,94.6787 122.623,96.2925 123.478,96.7884C127.491,99.116 130.397,95.451 130.871,94.6261C134.896,87.6301 128.092,83.1382 127.148,82.6315C122.443,80.1083 118.444,79.9585 115.146,80.852C114.112,82.0925 113.349,83.8401 113.273,86.311C113.255,86.8829 113.52,91.2281 117.849,91.243C118.359,91.2448 120.841,90.8842 120.834,88.4077C120.832,87.8801 120.607,86.5426 119.118,86.541C118.918,86.5408 117.984,86.6943 117.99,87.6102C117.991,87.8448 118.124,88.3065 118.632,88.3119C118.675,88.3124 119.054,88.2948 119.046,87.9193C119.046,87.89 119.049,87.6673 118.812,87.6632C118.804,87.6631 118.665,87.6698 118.658,87.7952C118.658,87.8008 118.662,87.8881 118.75,87.8871C118.756,87.887 118.812,87.8584 118.812,87.8584C118.813,87.9174 118.753,87.9183 118.75,87.9182C118.627,87.9175 118.63,87.7953 118.63,87.7951C118.628,87.6141 118.803,87.613 118.812,87.613C119.117,87.6138 119.118,87.9106 119.118,87.9195C119.121,88.4061 118.641,88.4047 118.633,88.4047C117.838,88.4004 117.839,87.6349 117.839,87.6097C117.836,86.3343 119.087,86.331 119.117,86.3311C121.183,86.3394 121.192,88.3477 121.192,88.409C121.201,91.7798 117.961,91.7512 117.85,91.751C112.417,91.7436 112.414,86.3659 112.414,86.308C112.404,84.1126 112.946,82.4673 113.705,81.3266C109.808,82.836 107.122,85.6902 105.606,87.1814C104.095,89.3302 103.083,91.9463 103.144,95.0057C103.188,97.2369 104.32,100.848 109.707,106.212L113.038,109.527C113.149,109.41 113.522,109.022 113.522,109.022C113.522,109.022 114.408,108.138 115.829,107.535C116.276,105.836 116.207,103.789 114.422,101.878C114.14,101.577 111.797,99.4877 109.602,101.683C109.343,101.942 108.273,103.389 109.535,104.653C109.804,104.922 110.597,105.492 111.351,104.735C111.452,104.633 111.846,104.079 111.377,103.614C111.257,103.494 110.956,103.325 110.696,103.581C110.674,103.603 110.491,103.805 110.686,103.993C110.702,104.008 110.813,104.123 110.935,104.005C110.939,104.001 111.006,103.927 110.945,103.859C110.943,103.856 110.896,103.814 110.852,103.859C110.85,103.862 110.836,103.905 110.836,103.905C110.805,103.875 110.835,103.844 110.837,103.843C110.899,103.781 110.96,103.845 110.96,103.845C111.053,103.937 110.965,104.026 110.961,104.03C110.806,104.185 110.655,104.034 110.65,104.029C110.401,103.782 110.644,103.538 110.649,103.534C111.052,103.132 111.441,103.524 111.454,103.537C112.104,104.188 111.473,104.826 111.458,104.842C110.41,105.889 109.384,104.866 109.353,104.835C107.636,103.114 109.287,101.48 109.343,101.424C112.093,98.6624 114.828,101.413 114.857,101.443C116.819,103.4 117.069,105.356 116.722,106.971C117.628,106.353 118.532,105.971 119.068,105.777C119.157,105.254 119.37,104.409 119.837,104.14C120.534,103.74 123.163,103.826 123.163,103.826C123.163,103.826 121.93,106.152 121.233,106.552C120.537,106.953 119.009,106.215 119.009,106.215C119.009,106.215 119.017,106.111 119.038,105.967Z"
        style="" />
    </g>
    
    <g>
        <g>
            <path class="svg-elements-animate" id="top-flower" d="M105.967,38.8718C106.207,39.282 106.588,39.9077 107.112,40.5902C106.869,39.1515 107.194,37.3013 109.053,35.4512C109.083,35.4217 111.82,32.6742 114.57,35.4354C114.626,35.4914 116.278,37.1255 114.558,38.8444C114.527,38.8757 113.5,39.8976 112.452,38.8505C112.437,38.835 111.807,38.197 112.457,37.5463C112.47,37.5335 112.859,37.142 113.263,37.544C113.267,37.5482 113.51,37.7918 113.261,38.0389C113.256,38.0434 113.105,38.1946 112.95,38.0398C112.946,38.0354 112.858,37.9459 112.951,37.8541C112.951,37.854 113.012,37.7904 113.074,37.8525C113.076,37.8539 113.106,37.8848 113.075,37.9147C113.075,37.9147 113.061,37.8713 113.059,37.8684C113.015,37.8232 112.968,37.8657 112.965,37.8687C112.905,37.936 112.972,38.0103 112.976,38.0142C113.098,38.1326 113.209,38.0173 113.225,38.0027C113.42,37.8147 113.237,37.6128 113.215,37.5913C112.955,37.3351 112.654,37.5038 112.533,37.623C112.064,38.0882 112.458,38.6418 112.559,38.7435C113.313,39.5007 114.107,38.9314 114.376,38.6625C115.64,37.4002 114.57,35.9532 114.311,35.6943C112.116,33.4992 109.771,35.5855 109.489,35.8868C107.701,37.7959 107.631,39.8412 108.076,41.54C109.498,42.143 110.385,43.0271 110.385,43.0271C110.385,43.0271 110.758,43.4151 110.865,43.5282L124.751,29.5789L125.649,29.5763C125.649,29.5763 116.097,39.2151 106.797,48.5634C100.201,55.1936 96.6873,56.0111 94.5783,55.9493C82.9614,55.6086 79.7937,46.6979 78.9265,42.2929C77.9273,46.8524 74.5776,55.3627 63.2403,55.7601C61.1308,55.834 57.6229,55.0367 51.0723,48.4441C41.8364,39.149 32.3511,29.5647 32.3511,29.5647L33.2488,29.5622L47.4125,43.8076C47.6139,43.5961 47.9896,43.2059 47.9896,43.2059C47.9896,43.2059 48.8508,42.3476 50.2539,41.7287L50.2738,41.7132L50.3147,41.6796C50.7653,40.0041 50.7096,37.9593 48.9349,36.0603C48.6548,35.7607 46.3242,33.6878 44.1138,35.8955C43.8532,36.1558 42.7728,37.609 44.0278,38.8641C44.2951,39.1315 45.0855,39.6963 45.8443,38.9347C45.9462,38.8325 46.3439,38.2765 45.878,37.814C45.7586,37.6956 45.4581,37.5286 45.1964,37.7862C45.1744,37.8079 44.9903,38.0109 45.1841,38.1977C45.1992,38.2122 45.3104,38.3269 45.4329,38.2078C45.437,38.2038 45.5044,38.1292 45.4442,38.0622C45.4415,38.0592 45.3953,38.017 45.3511,38.0625C45.3483,38.0654 45.3339,38.1089 45.3339,38.1089C45.3039,38.0791 45.334,38.048 45.3353,38.0467C45.3982,37.9842 45.4589,38.0474 45.4589,38.0475C45.5511,38.1388 45.4627,38.2288 45.4583,38.2332C45.3027,38.389 45.1522,38.2386 45.1477,38.2341C44.9002,37.9884 45.1451,37.7435 45.1494,37.7392C45.5557,37.3349 45.9425,37.7241 45.9552,37.7369C46.6009,38.3839 45.9663,39.0255 45.9507,39.0411C44.8952,40.0942 43.8756,39.0782 43.8446,39.0471C42.137,37.338 43.8002,35.6944 43.8564,35.6381C46.6251,32.8611 49.3441,35.593 49.3735,35.6223C51.2196,37.4618 51.5316,39.3101 51.2743,40.7784C52.0433,39.9722 52.6173,39.0573 53.0444,38.3348C52.8999,38.3564 52.7952,38.3652 52.7952,38.3652C52.7952,38.3652 52.0683,36.8413 52.4735,36.1428C52.8788,35.4444 55.2132,34.1975 55.2132,34.1975C55.2132,34.1975 55.2812,36.8265 54.876,37.5249C54.6037,37.9942 53.758,38.2122 53.2311,38.3046C52.998,38.933 52.4704,40.1349 51.5374,41.3212C53.0334,40.9908 54.9879,41.2297 56.9315,43.1803C56.9608,43.2097 59.6927,45.9287 56.9125,48.6942C56.8561,48.7503 55.2106,50.4115 53.5015,48.704C53.4704,48.673 52.4544,47.6533 53.5087,46.5991C53.5243,46.5835 54.1666,45.9496 54.8137,46.5954C54.8264,46.6081 55.2157,46.9949 54.8109,47.4007C54.8066,47.405 54.5614,47.6497 54.3157,47.4021C54.3112,47.3976 54.1608,47.2471 54.3168,47.0917C54.3212,47.0872 54.4113,46.999 54.5026,47.0911C54.5027,47.0912 54.5659,47.1519 54.5033,47.2147C54.502,47.2161 54.4708,47.2461 54.4411,47.216C54.4411,47.216 54.4846,47.2017 54.4875,47.1989C54.5331,47.1547 54.4908,47.1085 54.4879,47.1059C54.4209,47.0456 54.3462,47.113 54.3422,47.1171C54.2229,47.2395 54.3376,47.3506 54.3521,47.3657C54.539,47.5595 54.7422,47.3757 54.7639,47.3537C55.0218,47.0923 54.8549,46.7918 54.7364,46.6725C54.2739,46.2066 53.7174,46.6037 53.6151,46.7055C52.8527,47.4634 53.4173,48.2536 53.6847,48.521C54.9398,49.776 56.3944,48.697 56.655,48.4367C58.8653,46.229 56.7926,43.8984 56.4929,43.6184C54.5939,41.8436 52.5479,41.7867 50.8452,42.2428C50.2329,43.6678 49.3427,44.559 49.3427,44.559C49.3427,44.559 48.952,44.9342 48.7364,45.1391L51.6602,48.0798C56.9867,53.437 60.5901,54.5478 62.821,54.5791C65.6516,54.619 68.1089,53.743 70.1824,52.3961C70.1774,52.3863 70.1773,52.3818 70.1805,52.3786C71.5492,50.9764 74.4973,48.266 76.031,44.4332C74.8318,45.1101 73.3243,45.5367 71.3948,45.5389C71.3369,45.5389 65.9591,45.5669 65.9892,40.1332C65.9898,40.023 65.9835,36.7831 69.3544,36.7719C69.4156,36.7717 71.424,36.7695 71.4179,38.8355C71.4179,38.866 71.4059,40.1164 70.1306,40.1214C70.1054,40.1215 69.3398,40.1261 69.341,39.3318C69.341,39.3234 69.343,38.8434 69.8296,38.8439C69.8385,38.8439 70.1352,38.8431 70.1339,39.1482C70.1339,39.1569 70.1316,39.3317 69.9506,39.3313C69.9504,39.3313 69.8282,39.3342 69.8283,39.2114C69.8283,39.2087 69.8295,39.1487 69.8885,39.1489C69.8885,39.1489 69.8595,39.2057 69.8594,39.2113C69.8579,39.2991 69.9451,39.3028 69.9507,39.3025C70.0761,39.2955 70.0838,39.1563 70.0837,39.1484C70.0813,38.9116 69.8585,38.9157 69.8293,38.9153C69.4538,38.9095 69.4336,39.2888 69.4338,39.3316C69.4357,39.8404 69.8965,39.97 70.1311,39.9701C71.047,39.9708 71.2069,39.036 71.2081,38.8361C71.2167,37.3464 69.8807,37.1292 69.3532,37.1307C66.8767,37.1379 66.499,39.6214 66.4972,40.1318C66.4823,44.4606 70.8257,44.7007 71.3978,44.6799C73.7045,44.5958 75.3852,43.9162 76.5224,43.0469C77.5219,39.6459 77.4495,35.5759 74.9047,30.7841C74.4045,29.8424 69.9595,23.0643 62.9355,27.1293C62.1074,27.6086 58.4222,30.5359 60.7222,34.535C61.2122,35.387 62.8124,37.3381 65.2264,35.9334C65.5504,35.7449 66.921,34.6145 66.0649,33.1385C65.8455,32.7605 65.2047,32.1386 64.3757,32.6105C64.306,32.6501 63.7082,33.0367 64.0681,33.6367C64.0961,33.6834 64.2974,34.0464 64.6846,33.8294C64.6975,33.8221 64.9168,33.6797 64.811,33.4709C64.8063,33.4616 64.7189,33.3244 64.5775,33.409C64.5685,33.4144 64.5033,33.5141 64.5033,33.5141C64.4479,33.4191 64.5443,33.3612 64.5486,33.3587C64.7482,33.2438 64.8577,33.4436 64.8578,33.4438C65.0273,33.7354 64.7453,33.9022 64.7312,33.9104C64.2364,34.1973 63.9606,33.7182 63.9522,33.7038C63.4974,32.9198 64.2759,32.4685 64.2895,32.4607C65.5797,31.7172 66.2869,32.9558 66.3103,32.9965C67.4928,35.0572 65.471,36.2437 65.4214,36.2724C62.068,38.2107 60.1969,34.9708 60.1401,34.8719C57.0116,29.4271 62.2849,26.4128 62.4636,26.3089C64.1148,25.3487 65.6313,24.8743 67.0193,24.7367C65.9747,23.5179 64.6952,22.7216 63.8574,22.2318C63.8644,22.2713 63.8777,22.3811 63.8864,22.4605L63.8923,22.4763L63.8882,22.4796L63.8885,22.4821L63.881,22.4856C63.5398,22.7612 62.4937,23.5527 61.8256,23.3755C61.0481,23.1694 59.253,21.246 59.253,21.246C59.253,21.246 59.7361,21.1002 60.2385,20.9796C59.9694,20.5369 59.7334,20.0918 59.7334,20.0918C59.7334,20.0918 62.3645,20.0073 63.0608,20.4078C63.5096,20.666 63.7237,21.4531 63.828,22.0448C64.7131,22.3724 66.4739,23.1656 67.8913,24.6957C73.3202,24.7722 76.2571,29.9059 76.2984,29.9775C77.0265,31.2381 77.5768,32.4522 78.0069,33.7137C78.3102,29.0996 78.4333,25.9742 78.4552,23.2523C78.3846,20.719 77.7467,16.27 72.0887,14.5638C71.5417,14.3989 67.2831,13.5314 66.1476,17.7159C66.0137,18.2092 65.7188,20.7034 68.1086,21.3372C68.6178,21.4722 69.9658,21.6007 70.3531,20.1597C70.4051,19.9663 70.499,19.023 69.6142,18.7918C69.3876,18.7326 68.9081,18.7411 68.7711,19.232C68.7596,19.2733 68.6783,19.6447 69.0425,19.7342C69.0709,19.7412 69.285,19.8015 69.3502,19.5735C69.3524,19.5659 69.3819,19.4294 69.2626,19.3909C69.2573,19.3892 69.1721,19.3707 69.1503,19.456C69.1489,19.4614 69.1618,19.5235 69.1618,19.5235C69.1048,19.5088 69.1195,19.4505 69.1202,19.448C69.1527,19.3293 69.2701,19.363 69.2702,19.3631C69.4451,19.4086 69.4009,19.5779 69.3986,19.5863C69.3188,19.8813 69.0324,19.8055 69.0238,19.8032C68.5538,19.6805 68.6794,19.2164 68.6816,19.2083C68.8914,18.4409 69.6296,18.6392 69.6539,18.6456C70.8843,18.9732 70.5637,20.1839 70.5556,20.2134C70.0127,22.2103 68.0736,21.6997 68.0145,21.684C64.762,20.8199 65.6286,17.6925 65.6573,17.5858C67.0717,12.3304 72.2581,13.7187 72.314,13.7335C76.0896,14.7275 77.7279,16.9666 78.4088,19.2307C78.3356,16.6064 78.1859,13.8504 78.0733,9.71985C77.1255,9.51657 74.831,8.92221 74.2924,7.73855C73.6295,6.28172 74.3226,1.06619 74.3226,1.06619C74.3226,1.06619 75.0686,1.56305 75.9738,2.23775C76.3552,1.16116 76.7014,0.326718 76.7014,0.326718C76.7014,0.326718 77.292,1.00042 78.014,1.91754C78.6697,0.961359 79.2196,0.243527 79.2196,0.243527C79.2196,0.243527 81.524,4.93664 81.3671,6.53412C81.2322,7.90696 79.0518,9.31457 78.3915,9.7129C78.6113,11.9228 78.9149,15.3625 79.1383,19.4733C79.7354,17.2005 81.3584,14.7653 85.34,13.6961C85.396,13.6811 90.5921,12.263 91.9702,17.5104C91.9981,17.6169 92.8432,20.7394 89.5846,21.6222C89.5254,21.6382 87.5828,22.1599 87.0536,20.1661C87.0458,20.1366 86.7335,18.9278 87.9662,18.5931C87.9906,18.5865 88.7301,18.384 88.9346,19.1502C88.9368,19.1584 89.0592,19.6217 88.5883,19.7472C88.5797,19.7495 88.2927,19.8269 88.215,19.5324C88.2128,19.524 88.1697,19.3549 88.345,19.3084C88.3451,19.3084 88.4627,19.274 88.4944,19.3925C88.495,19.395 88.5094,19.4532 88.4522,19.4683C88.4522,19.4683 88.4656,19.406 88.4642,19.4006C88.443,19.3155 88.3577,19.3345 88.3523,19.3362C88.2327,19.3754 88.2614,19.5117 88.2635,19.5193C88.3272,19.7469 88.5417,19.6854 88.57,19.6782C88.9349,19.5867 88.8562,19.2157 88.8449,19.1745C88.7113,18.6844 88.2319,18.6786 88.0049,18.7391C87.1185,18.9754 87.2059,19.9181 87.2565,20.1113C87.6339,21.55 88.9828,21.4139 89.4929,21.2759C91.8871,20.6284 91.6094,18.1359 91.479,17.6433C90.3724,13.4652 86.1077,14.3571 85.5596,14.5252C80.7973,15.9855 79.5632,19.3604 79.2504,21.8172C79.4169,25.7645 79.4807,30.159 79.3029,34.3525C79.747,32.8946 80.37,31.4624 81.2433,29.9633C81.2864,29.8894 84.4302,24.4416 89.9532,24.6349C91.3828,23.0949 93.1495,22.2911 94.0376,21.958C94.1459,21.3663 94.3655,20.578 94.816,20.3172C95.5151,19.9126 98.1457,19.9821 98.1457,19.9821C98.1457,19.9821 97.9066,20.4285 97.6344,20.8728C98.1361,20.9905 98.6182,21.1336 98.6182,21.1336C98.6182,21.1336 96.8097,23.0673 96.0308,23.2779C95.3615,23.4589 94.3208,22.6734 93.9815,22.3997L93.9741,22.3963L93.9743,22.3938L93.9703,22.3904L93.9763,22.3747C93.9855,22.2952 93.9996,22.1853 94.0069,22.1452C93.1644,22.6409 91.8759,23.4487 90.8038,24.6955C92.1534,24.8649 93.5716,25.3296 95.1037,26.2153C95.2817,26.3182 100.534,29.3023 97.3682,34.7652C97.3107,34.8645 95.4172,38.1151 92.0771,36.196C92.0277,36.1676 90.0141,34.9927 91.2108,32.9251C91.2345,32.8843 91.9502,31.6417 93.2353,32.3777C93.2489,32.3855 94.0243,32.8323 93.564,33.6189C93.5556,33.6334 93.2764,34.114 92.7836,33.83C92.7696,33.8218 92.4887,33.6567 92.6603,33.3641C92.6604,33.3639 92.7713,33.1635 92.9701,33.2772C92.9744,33.2797 93.0703,33.3371 93.0143,33.4324C93.0143,33.4324 92.9498,33.3331 92.9408,33.3277C92.8,33.2439 92.7116,33.3817 92.7069,33.391C92.5996,33.6003 92.8179,33.7415 92.8308,33.7487C93.2165,33.9635 93.4203,33.5994 93.4486,33.5525C93.8127,32.9504 93.2175,32.5672 93.1481,32.528C92.3223,32.0609 91.6772,32.6864 91.4553,33.0657C90.5889,34.5466 91.9517,35.6692 92.2744,35.8559C94.6787,37.2467 96.2925,35.2864 96.7884,34.4316C99.116,30.4192 95.451,27.513 94.6261,27.0385C87.6301,23.0137 83.1382,29.8174 82.6315,30.762C80.1083,35.4664 79.9585,39.4658 80.852,42.7636C82.0925,43.7976 83.8401,44.5613 86.311,44.6372C86.8829,44.6547 91.2281,44.3896 91.243,40.0609C91.2448,39.5505 90.8842,37.0691 88.4077,37.0761C87.8801,37.0776 86.5426,37.3024 86.541,38.7921C86.5408,38.9921 86.6943,39.926 87.6102,39.92C87.8448,39.9185 88.3065,39.7863 88.3119,39.2775C88.3124,39.2347 88.2948,38.8555 87.9193,38.8634C87.89,38.864 87.6673,38.8612 87.6632,39.098C87.6631,39.1059 87.6698,39.2451 87.7952,39.2513C87.8008,39.2516 87.8881,39.2475 87.8871,39.1596C87.887,39.154 87.8584,39.0974 87.8584,39.0974C87.9174,39.0969 87.9183,39.1569 87.9182,39.1595C87.9175,39.2824 87.7953,39.2802 87.7951,39.2802C87.6141,39.2815 87.613,39.1068 87.613,39.0981C87.6138,38.7931 87.9106,38.7921 87.9195,38.792C88.4061,38.7888 88.4047,39.2688 88.4047,39.2772C88.4004,40.0714 87.6349,40.0712 87.6097,40.0713C86.3343,40.0736 86.331,38.8233 86.3311,38.7927C86.3394,36.7267 88.3477,36.7175 88.409,36.7173C91.7798,36.7092 91.7512,39.9491 91.751,40.0594C91.7436,45.493 86.3659,45.4958 86.308,45.4961C84.1126,45.5063 82.4673,44.9638 81.3266,44.2044C82.836,48.1019 85.6902,50.7879 87.1814,52.304C89.3302,53.8149 91.9463,54.8265 95.0057,54.7659C97.2369,54.7217 100.848,53.5903 106.212,48.2024L109.527,44.8719C109.41,44.7609 109.022,44.3879 109.022,44.3879C109.022,44.3879 108.138,43.5018 107.535,42.0803C105.836,41.634 103.789,41.7026 101.878,43.4883C101.577,43.7701 99.4877,46.1125 101.683,48.3077C101.942,48.5665 103.389,49.6371 104.653,48.3749C104.922,48.106 105.492,47.3126 104.735,46.5589C104.633,46.4578 104.079,46.0638 103.614,46.5324C103.494,46.6524 103.325,46.9539 103.581,47.2138C103.603,47.2356 103.805,47.4183 103.993,47.2234C104.008,47.2083 104.123,47.0965 104.005,46.9748C104.001,46.9707 103.927,46.9037 103.859,46.9644C103.856,46.967 103.814,47.0135 103.859,47.0574C103.862,47.0602 103.905,47.0743 103.905,47.0743C103.875,47.1045 103.844,47.0746 103.843,47.0733C103.781,47.0108 103.845,46.9498 103.845,46.9497C103.937,46.857 104.026,46.9448 104.03,46.9492C104.185,47.1037 104.034,47.2551 104.029,47.2596C103.782,47.5086 103.538,47.2653 103.534,47.2611C103.132,46.8575 103.524,46.4685 103.537,46.4557C104.188,45.8063 104.826,46.4365 104.842,46.452C105.889,47.5002 104.866,48.5256 104.835,48.5568C103.114,50.2742 101.48,48.6224 101.424,48.5666C98.6624,45.817 101.413,43.0823 101.443,43.0527C103.4,41.091 105.356,40.8408 106.971,41.1878C106.353,40.2816 105.971,39.3781 105.777,38.842C105.254,38.7532 104.409,38.54 104.14,38.0723C103.74,37.3762 103.826,34.7467 103.826,34.7467C103.826,34.7467 106.152,35.9803 106.552,36.6764C106.953,37.3725 106.215,38.9007 106.215,38.9007C106.215,38.9007 106.111,38.8924 105.967,38.8718Z"
            style="" />
        </g>
        <g>
            <path class="svg-elements-animate" id="bottom-flower" d="M52.0329,119.128C51.7934,118.718 51.412,118.092 50.888,117.41C51.1306,118.848 50.8059,120.699 48.9471,122.549C48.9175,122.578 46.1795,125.326 43.4299,122.565C43.3741,122.509 41.7223,120.875 43.4417,119.156C43.4729,119.124 44.4996,118.102 45.5478,119.15C45.5633,119.165 46.1935,119.803 45.5433,120.454C45.5304,120.467 45.141,120.858 44.7375,120.456C44.7332,120.452 44.4899,120.208 44.7392,119.961C44.7437,119.957 44.8952,119.805 45.0498,119.96C45.0542,119.965 45.142,120.054 45.0492,120.146C45.0491,120.146 44.988,120.21 44.9255,120.147C44.9242,120.146 44.8943,120.115 44.9246,120.085C44.9246,120.085 44.9386,120.129 44.9414,120.132C44.9853,120.177 45.0318,120.134 45.0345,120.131C45.0952,120.064 45.0283,119.99 45.0242,119.986C44.9025,119.867 44.7906,119.983 44.7754,119.997C44.5803,120.185 44.7629,120.387 44.7848,120.409C45.0447,120.665 45.3464,120.496 45.4666,120.377C45.9357,119.912 45.5418,119.358 45.4407,119.257C44.6871,118.499 43.8928,119.069 43.6236,119.338C42.3599,120.6 43.4304,122.047 43.6892,122.306C45.8843,124.501 48.2293,122.415 48.5115,122.113C50.2993,120.204 50.3691,118.159 49.9235,116.46C48.5016,115.857 47.6155,114.973 47.6155,114.973C47.6155,114.973 47.2425,114.585 47.1353,114.472L33.2488,128.421L32.3511,128.424C32.3511,128.424 41.9028,118.785 51.203,109.437C57.7992,102.806 61.3127,101.989 63.4217,102.051C75.0386,102.391 78.2063,111.302 79.0735,115.707C80.0727,111.148 83.4224,102.637 94.7597,102.24C96.8692,102.166 100.377,102.963 106.928,109.556C116.164,118.851 125.649,128.435 125.649,128.435L124.751,128.438L110.588,114.192C110.386,114.404 110.01,114.794 110.01,114.794C110.01,114.794 109.149,115.652 107.746,116.271L107.726,116.287L107.685,116.32C107.235,117.996 107.29,120.041 109.065,121.94C109.345,122.239 111.676,124.312 113.886,122.104C114.147,121.844 115.227,120.391 113.972,119.136C113.705,118.868 112.915,118.304 112.156,119.065C112.054,119.168 111.656,119.723 112.122,120.186C112.241,120.304 112.542,120.471 112.804,120.214C112.826,120.192 113.01,119.989 112.816,119.802C112.801,119.788 112.69,119.673 112.567,119.792C112.563,119.796 112.496,119.871 112.556,119.938C112.558,119.941 112.605,119.983 112.649,119.938C112.652,119.935 112.666,119.891 112.666,119.891C112.696,119.921 112.666,119.952 112.665,119.953C112.602,120.016 112.541,119.953 112.541,119.952C112.449,119.861 112.537,119.771 112.542,119.767C112.697,119.611 112.848,119.761 112.852,119.766C113.1,120.012 112.855,120.256 112.851,120.261C112.444,120.665 112.058,120.276 112.045,120.263C111.399,119.616 112.034,118.975 112.049,118.959C113.105,117.906 114.124,118.922 114.155,118.953C115.863,120.662 114.2,122.306 114.144,122.362C111.375,125.139 108.656,122.407 108.626,122.378C106.78,120.538 106.468,118.69 106.726,117.222C105.957,118.028 105.383,118.943 104.956,119.665C105.1,119.644 105.205,119.635 105.205,119.635C105.205,119.635 105.932,121.159 105.526,121.857C105.121,122.556 102.787,123.803 102.787,123.803C102.787,123.803 102.719,121.173 103.124,120.475C103.396,120.006 104.242,119.788 104.769,119.695C105.002,119.067 105.53,117.865 106.463,116.679C104.967,117.009 103.012,116.77 101.068,114.82C101.039,114.79 98.3073,112.071 101.088,109.306C101.144,109.25 102.789,107.588 104.499,109.296C104.53,109.327 105.546,110.347 104.491,111.401C104.476,111.417 103.833,112.05 103.186,111.405C103.174,111.392 102.784,111.005 103.189,110.599C103.193,110.595 103.439,110.35 103.684,110.598C103.689,110.602 103.839,110.753 103.683,110.908C103.679,110.913 103.589,111.001 103.497,110.909C103.497,110.909 103.434,110.848 103.497,110.785C103.498,110.784 103.529,110.754 103.559,110.784C103.559,110.784 103.515,110.798 103.512,110.801C103.467,110.845 103.509,110.891 103.512,110.894C103.579,110.954 103.654,110.887 103.658,110.883C103.777,110.761 103.662,110.649 103.648,110.634C103.461,110.44 103.258,110.624 103.236,110.646C102.978,110.908 103.145,111.208 103.264,111.328C103.726,111.793 104.283,111.396 104.385,111.295C105.147,110.537 104.583,109.746 104.315,109.479C103.06,108.224 101.606,109.303 101.345,109.563C99.1347,111.771 101.207,114.102 101.507,114.382C103.406,116.156 105.452,116.213 107.155,115.757C107.767,114.332 108.657,113.441 108.657,113.441C108.657,113.441 109.048,113.066 109.264,112.861L106.34,109.92C101.013,104.563 97.4099,103.452 95.179,103.421C92.3484,103.381 89.8911,104.257 87.8176,105.604C87.8226,105.614 87.8227,105.618 87.8195,105.621C86.4508,107.024 83.5027,109.734 81.969,113.567C83.1682,112.89 84.6757,112.463 86.6052,112.461C86.6631,112.461 92.0409,112.433 92.0108,117.867C92.0102,117.977 92.0165,121.217 88.6456,121.228C88.5844,121.228 86.576,121.231 86.5821,119.165C86.5821,119.134 86.5941,117.884 87.8694,117.879C87.8946,117.879 88.6602,117.874 88.659,118.668C88.659,118.677 88.657,119.157 88.1704,119.156C88.1615,119.156 87.8648,119.157 87.8661,118.852C87.8661,118.843 87.8684,118.668 88.0494,118.669C88.0496,118.669 88.1718,118.666 88.1717,118.789C88.1717,118.791 88.1705,118.851 88.1115,118.851C88.1115,118.851 88.1405,118.794 88.1406,118.789C88.1421,118.701 88.0549,118.697 88.0493,118.698C87.9239,118.704 87.9162,118.844 87.9163,118.852C87.9187,119.088 88.1415,119.084 88.1707,119.085C88.5462,119.091 88.5664,118.711 88.5662,118.668C88.5643,118.16 88.1035,118.03 87.8689,118.03C86.953,118.029 86.7931,118.964 86.7919,119.164C86.7833,120.654 88.1193,120.871 88.6468,120.869C91.1233,120.862 91.501,118.379 91.5028,117.868C91.5177,113.539 87.1743,113.299 86.6022,113.32C84.2955,113.404 82.6148,114.084 81.4776,114.953C80.4781,118.354 80.5505,122.424 83.0953,127.216C83.5955,128.158 88.0405,134.936 95.0645,130.871C95.8926,130.391 99.5778,127.464 97.2778,123.465C96.7878,122.613 95.1876,120.662 92.7736,122.067C92.4496,122.255 91.079,123.386 91.9351,124.861C92.1545,125.24 92.7953,125.861 93.6243,125.39C93.694,125.35 94.2918,124.963 93.9319,124.363C93.9039,124.317 93.7026,123.954 93.3154,124.171C93.3025,124.178 93.0832,124.32 93.189,124.529C93.1937,124.538 93.2811,124.676 93.4225,124.591C93.4315,124.586 93.4967,124.486 93.4967,124.486C93.5521,124.581 93.4557,124.639 93.4514,124.641C93.2518,124.756 93.1423,124.556 93.1422,124.556C92.9727,124.265 93.2547,124.098 93.2688,124.09C93.7636,123.803 94.0394,124.282 94.0478,124.296C94.5026,125.08 93.7241,125.531 93.7105,125.539C92.4203,126.283 91.7131,125.044 91.6897,125.003C90.5072,122.943 92.529,121.756 92.5786,121.728C95.932,119.789 97.8031,123.029 97.8599,123.128C100.988,128.573 95.7151,131.587 95.5364,131.691C93.8852,132.651 92.3687,133.126 90.9807,133.263C92.0253,134.482 93.3048,135.278 94.1426,135.768C94.1356,135.729 94.1223,135.619 94.1136,135.539L94.1077,135.524L94.1118,135.52L94.1115,135.518L94.119,135.514C94.4602,135.239 95.5063,134.447 96.1744,134.624C96.9519,134.831 98.747,136.754 98.747,136.754C98.747,136.754 98.2639,136.9 97.7615,137.02C98.0306,137.463 98.2666,137.908 98.2666,137.908C98.2666,137.908 95.6355,137.993 94.9392,137.592C94.4904,137.334 94.2763,136.547 94.172,135.955C93.2869,135.628 91.5261,134.834 90.1087,133.304C84.6798,133.228 81.7429,128.094 81.7016,128.023C80.9735,126.762 80.4232,125.548 79.9931,124.286C79.6898,128.9 79.5667,132.026 79.5448,134.748C79.6154,137.281 80.2533,141.73 85.9113,143.436C86.4583,143.601 90.7169,144.469 91.8524,140.284C91.9863,139.791 92.2812,137.297 89.8914,136.663C89.3822,136.528 88.0342,136.399 87.6469,137.84C87.5949,138.034 87.501,138.977 88.3858,139.208C88.6124,139.267 89.0919,139.259 89.2289,138.768C89.2404,138.727 89.3217,138.355 88.9575,138.266C88.9291,138.259 88.715,138.198 88.6498,138.426C88.6476,138.434 88.6181,138.571 88.7374,138.609C88.7427,138.611 88.8279,138.629 88.8497,138.544C88.8511,138.539 88.8382,138.476 88.8382,138.476C88.8952,138.491 88.8805,138.549 88.8798,138.552C88.8473,138.671 88.7299,138.637 88.7298,138.637C88.5549,138.591 88.5991,138.422 88.6014,138.414C88.6812,138.119 88.9676,138.194 88.9762,138.197C89.4462,138.32 89.3206,138.784 89.3184,138.792C89.1086,139.559 88.3704,139.361 88.3461,139.354C87.1157,139.027 87.4363,137.816 87.4444,137.787C87.9873,135.79 89.9264,136.3 89.9855,136.316C93.238,137.18 92.3714,140.307 92.3427,140.414C90.9283,145.67 85.7419,144.281 85.686,144.267C81.9104,143.273 80.2721,141.033 79.5912,138.769C79.6644,141.394 79.8141,144.15 79.9267,148.28C80.8745,148.483 83.169,149.078 83.7076,150.261C84.3705,151.718 83.6774,156.934 83.6774,156.934C83.6774,156.934 82.9314,156.437 82.0262,155.762C81.6448,156.839 81.2986,157.673 81.2986,157.673C81.2986,157.673 80.708,157 79.986,156.082C79.3303,157.039 78.7804,157.756 78.7804,157.756C78.7804,157.756 76.476,153.063 76.6329,151.466C76.7678,150.093 78.9482,148.685 79.6085,148.287C79.3887,146.077 79.0851,142.638 78.8617,138.527C78.2646,140.799 76.6416,143.235 72.66,144.304C72.604,144.319 67.4079,145.737 66.0298,140.49C66.0019,140.383 65.1568,137.261 68.4154,136.378C68.4746,136.362 70.4172,135.84 70.9464,137.834C70.9542,137.863 71.2665,139.072 70.0338,139.407C70.0094,139.413 69.2699,139.616 69.0654,138.85C69.0632,138.842 68.9408,138.378 69.4117,138.253C69.4203,138.251 69.7073,138.173 69.785,138.468C69.7872,138.476 69.8303,138.645 69.655,138.692C69.6549,138.692 69.5373,138.726 69.5056,138.608C69.505,138.605 69.4906,138.547 69.5478,138.532C69.5478,138.532 69.5344,138.594 69.5358,138.599C69.557,138.685 69.6423,138.666 69.6477,138.664C69.7673,138.625 69.7386,138.488 69.7365,138.481C69.6728,138.253 69.4583,138.315 69.43,138.322C69.0651,138.413 69.1438,138.784 69.1551,138.826C69.2887,139.316 69.7681,139.321 69.9951,139.261C70.8815,139.025 70.7941,138.082 70.7435,137.889C70.3661,136.45 69.0172,136.586 68.5071,136.724C66.1129,137.372 66.3906,139.864 66.521,140.357C67.6276,144.535 71.8923,143.643 72.4404,143.475C77.2027,142.014 78.4368,138.64 78.7496,136.183C78.5831,132.235 78.5193,127.841 78.6971,123.648C78.253,125.105 77.63,126.538 76.7567,128.037C76.7136,128.111 73.5698,133.558 68.0468,133.365C66.6172,134.905 64.8505,135.709 63.9624,136.042C63.8541,136.634 63.6345,137.422 63.184,137.683C62.4849,138.087 59.8543,138.018 59.8543,138.018C59.8543,138.018 60.0934,137.571 60.3656,137.127C59.8639,137.009 59.3818,136.866 59.3818,136.866C59.3818,136.866 61.1903,134.933 61.9692,134.722C62.6385,134.541 63.6792,135.327 64.0185,135.6L64.0259,135.604L64.0257,135.606L64.0297,135.61L64.0237,135.625C64.0145,135.705 64.0004,135.815 63.9931,135.855C64.8356,135.359 66.1241,134.551 67.1962,133.305C65.8466,133.135 64.4284,132.67 62.8963,131.785C62.7183,131.682 57.4657,128.698 60.6318,123.235C60.6893,123.136 62.5828,119.885 65.9229,121.804C65.9723,121.832 67.9859,123.007 66.7892,125.075C66.7655,125.116 66.0498,126.358 64.7647,125.622C64.7511,125.615 63.9757,125.168 64.436,124.381C64.4444,124.367 64.7236,123.886 65.2164,124.17C65.2304,124.178 65.5113,124.343 65.3397,124.636C65.3396,124.636 65.2287,124.837 65.0299,124.723C65.0256,124.72 64.9297,124.663 64.9857,124.568C64.9857,124.568 65.0502,124.667 65.0592,124.672C65.2,124.756 65.2884,124.618 65.2931,124.609C65.4004,124.4 65.1821,124.259 65.1692,124.251C64.7835,124.036 64.5797,124.401 64.5514,124.447C64.1873,125.05 64.7825,125.433 64.8519,125.472C65.6777,125.939 66.3228,125.314 66.5447,124.934C67.4111,123.453 66.0483,122.331 65.7256,122.144C63.3213,120.753 61.7075,122.714 61.2116,123.568C58.884,127.581 62.549,130.487 63.3739,130.962C70.3699,134.986 74.8618,128.183 75.3685,127.238C77.8917,122.534 78.0415,118.534 77.148,115.236C75.9075,114.202 74.1599,113.439 71.689,113.363C71.1171,113.345 66.7719,113.61 66.757,117.939C66.7552,118.45 67.1158,120.931 69.5923,120.924C70.1199,120.922 71.4574,120.698 71.459,119.208C71.4592,119.008 71.3057,118.074 70.3898,118.08C70.1552,118.081 69.6935,118.214 69.6881,118.723C69.6876,118.765 69.7052,119.145 70.0807,119.137C70.11,119.136 70.3327,119.139 70.3368,118.902C70.3369,118.894 70.3302,118.755 70.2048,118.749C70.1992,118.748 70.1119,118.753 70.1129,118.84C70.113,118.846 70.1416,118.903 70.1416,118.903C70.0826,118.903 70.0817,118.843 70.0818,118.84C70.0825,118.718 70.2047,118.72 70.2049,118.72C70.3859,118.718 70.387,118.893 70.387,118.902C70.3862,119.207 70.0894,119.208 70.0805,119.208C69.5939,119.211 69.5953,118.731 69.5953,118.723C69.5996,117.929 70.3651,117.929 70.3903,117.929C71.6657,117.926 71.669,119.177 71.6689,119.207C71.6606,121.273 69.6523,121.283 69.591,121.283C66.2202,121.291 66.2488,118.051 66.249,117.941C66.2564,112.507 71.6341,112.504 71.692,112.504C73.8874,112.494 75.5327,113.036 76.6734,113.796C75.164,109.898 72.3098,107.212 70.8186,105.696C68.6698,104.185 66.0537,103.174 62.9943,103.234C60.7631,103.278 57.152,104.41 51.7884,109.798L48.4728,113.128C48.5898,113.239 48.9779,113.612 48.9779,113.612C48.9779,113.612 49.862,114.498 50.4645,115.92C52.1641,116.366 54.2105,116.297 56.1218,114.512C56.4235,114.23 58.5123,111.887 56.3172,109.692C56.0584,109.434 54.6111,108.363 53.3473,109.625C53.0781,109.894 52.508,110.687 53.2652,111.441C53.3669,111.542 53.9206,111.936 54.3864,111.468C54.5057,111.348 54.6746,111.046 54.4185,110.786C54.397,110.764 54.195,110.582 54.0069,110.777C53.9922,110.792 53.8768,110.904 53.9952,111.025C53.9991,111.029 54.0734,111.096 54.1408,111.036C54.1438,111.033 54.1863,110.987 54.1411,110.943C54.1382,110.94 54.0948,110.926 54.0948,110.926C54.1247,110.895 54.1557,110.925 54.157,110.927C54.2191,110.989 54.1555,111.05 54.1554,111.05C54.0634,111.143 53.974,111.055 53.9696,111.051C53.8147,110.896 53.9661,110.745 53.9706,110.74C54.218,110.491 54.4616,110.735 54.4658,110.739C54.8678,111.142 54.4759,111.531 54.4631,111.544C53.8116,112.194 53.1736,111.564 53.1581,111.548C52.111,110.5 53.1341,109.474 53.1654,109.443C54.8864,107.726 56.5204,109.378 56.5764,109.433C59.3376,112.183 56.5869,114.918 56.5574,114.947C54.6003,116.909 52.6441,117.159 51.0291,116.812C51.6473,117.718 52.0291,118.622 52.2233,119.158C52.7463,119.247 53.5905,119.46 53.8596,119.928C54.26,120.624 54.1739,123.253 54.1739,123.253C54.1739,123.253 51.8479,122.02 51.4475,121.324C51.0471,120.627 51.7845,119.099 51.7845,119.099C51.7845,119.099 51.8892,119.108 52.0329,119.128Z"
            style="" />
        </g>
    </g>
</svg>